<svg width="20" height="20" viewBox="0 0 20 20" fill="none" xmlns="http://www.w3.org/2000/svg">
<path d="M1.60555 4.49492L7.11223 10.0002L1.61057 15.5033C1.41956 15.691 1.26734 15.9145 1.1626 16.161C1.05693 16.4098 1.00167 16.677 1.00004 16.9472C0.998405 17.2175 1.05043 17.4853 1.15309 17.7353C1.25575 17.9853 1.40701 18.2124 1.5981 18.4035C1.78918 18.5946 2.0163 18.7458 2.26628 18.8485C2.51627 18.9512 2.78414 19.0032 3.05436 19.0016C3.32461 18.9999 3.59183 18.9447 3.84055 18.839C4.08713 18.7342 4.31067 18.582 4.49844 18.3909L10.0001 12.8879L15.5016 18.3894C15.6894 18.5804 15.9129 18.7327 16.1595 18.8374C16.4082 18.9431 16.6754 18.9983 16.9456 19C17.2159 19.0016 17.4837 18.9496 17.7337 18.8469C17.9837 18.7442 18.2108 18.593 18.4019 18.4019C18.593 18.2108 18.7442 17.9837 18.8469 17.7337C18.9496 17.4837 19.0016 17.2159 19 16.9456C18.9983 16.6754 18.9431 16.4082 18.8374 16.1595C18.7327 15.9129 18.5804 15.6894 18.3894 15.5016L12.8878 10L18.3894 4.49835C18.5804 4.3106 18.7327 4.08709 18.8374 3.84055C18.9431 3.59183 18.9983 3.3246 19 3.05437C19.0016 2.78414 18.9496 2.51627 18.8469 2.26629C18.7442 2.0163 18.593 1.78919 18.4019 1.5981C18.2108 1.40701 17.9837 1.25575 17.7337 1.15309C17.4837 1.05043 17.2159 0.998405 16.9456 1.00004C16.6754 1.00167 16.4082 1.05693 16.1595 1.1626C15.9129 1.26736 15.6894 1.4196 15.5016 1.61064L10 7.11223L4.49482 1.60705L4.49477 1.607C4.11183 1.22411 3.59247 1.00901 3.05094 1.00901C2.66851 1.00901 2.29715 1.11628 1.97708 1.31416H1.89831L1.6054 1.6071C1.22251 1.99005 1.00741 2.5094 1.00741 3.05094C1.00741 3.59247 1.22251 4.11183 1.6054 4.49477L1.60555 4.49492Z" fill="#CB3F12" stroke="#CB3F12" stroke-width="2"/>
</svg>
