<svg width="583" height="583" viewBox="0 0 583 583" fill="none" xmlns="http://www.w3.org/2000/svg">
<path d="M583 291.5C583 452.491 452.491 583 291.5 583C130.509 583 0 452.491 0 291.5C0 130.509 130.509 0 291.5 0C452.491 0 583 130.509 583 291.5Z" fill="#D9D9D9"/>
<path d="M518 292C518 416.816 416.816 518 292 518C167.184 518 66 416.816 66 292C66 167.184 167.184 66 292 66C416.816 66 518 167.184 518 292Z" fill="white"/>
<path d="M449 292C449 378.709 378.709 449 292 449C205.291 449 135 378.709 135 292C135 205.291 205.291 135 292 135C378.709 135 449 205.291 449 292Z" fill="#D9D9D9"/>
</svg>
