<svg width="30" height="46" viewBox="0 0 30 46" fill="none" xmlns="http://www.w3.org/2000/svg">
<g filter="url(#filter0_d_494_1342)">
<path d="M22.2994 1.70058C22.5215 1.92258 22.6977 2.18617 22.8179 2.47628C22.9381 2.7664 23 3.07735 23 3.39138C23 3.70542 22.9381 4.01637 22.8179 4.30648C22.6977 4.5966 22.5215 4.86019 22.2994 5.08219L8.77299 18.6086L22.2994 32.135C23.1955 33.0312 23.2312 34.4618 22.4065 35.4011L22.2994 35.5157C22.0774 35.7378 21.8138 35.914 21.5237 36.0342C21.2336 36.1544 20.9226 36.2163 20.6086 36.2163C20.2946 36.2163 19.9836 36.1544 19.6935 36.0342C19.4034 35.914 19.1398 35.7378 18.9178 35.5157L3.70058 20.2994C3.47848 20.0774 3.30229 19.8138 3.18208 19.5237C3.06187 19.2336 3 18.9226 3 18.6086C3 18.2946 3.06187 17.9836 3.18208 17.6935C3.30229 17.4034 3.47848 17.1398 3.70058 16.9178L18.9178 1.70058C19.1398 1.47848 19.4034 1.30229 19.6935 1.18208C19.9836 1.06187 20.2946 1 20.6086 1C20.9226 1 21.2336 1.06187 21.5237 1.18208C21.8138 1.30229 22.0774 1.47848 22.2994 1.70058Z" fill="white"/>
<path d="M22.7771 35.7368L22.7718 35.7425L22.6648 35.8571L22.659 35.8632L22.653 35.8692C22.3846 36.1377 22.0659 36.3508 21.7151 36.4961C21.3643 36.6415 20.9883 36.7163 20.6086 36.7163C20.2289 36.7163 19.8529 36.6415 19.5021 36.4961C19.1514 36.3508 18.8327 36.1378 18.5643 35.8693L22.7771 35.7368ZM22.7771 35.7368L22.7822 35.731C23.7796 34.595 23.7368 32.8653 22.653 31.7815L9.4801 18.6086L22.6529 5.43582C22.6529 5.43579 22.6529 5.43577 22.653 5.43574C22.9215 5.16733 23.1345 4.84864 23.2798 4.49788C23.4252 4.14709 23.5 3.7711 23.5 3.39138C23.5 3.01167 23.4252 2.63568 23.2798 2.28489C23.1345 1.93417 22.9215 1.61551 22.6531 1.34711C22.3846 1.07855 22.0659 0.865512 21.7151 0.720162C21.3643 0.574812 20.9883 0.5 20.6086 0.5C20.2289 0.5 19.8529 0.574812 19.5021 0.720161C19.1514 0.865497 18.8327 1.07851 18.5643 1.34703C18.5642 1.34705 18.5642 1.34708 18.5642 1.34711L3.34711 16.5642L22.7771 35.7368ZM3.34711 20.6531L18.5642 35.8692L3.34703 16.5643C3.07851 16.8327 2.8655 17.1514 2.72016 17.5021C2.57481 17.8529 2.5 18.2289 2.5 18.6086C2.5 18.9883 2.57481 19.3643 2.72016 19.7151C2.8655 20.0659 3.07851 20.3846 3.34704 20.653C3.34706 20.653 3.34709 20.653 3.34711 20.6531Z" stroke="white"/>
</g>
<defs>
<filter id="filter0_d_494_1342" x="0" y="0" width="30" height="45.2158" filterUnits="userSpaceOnUse" color-interpolation-filters="sRGB">
<feFlood flood-opacity="0" result="BackgroundImageFix"/>
<feColorMatrix in="SourceAlpha" type="matrix" values="0 0 0 0 0 0 0 0 0 0 0 0 0 0 0 0 0 0 127 0" result="hardAlpha"/>
<feOffset dx="2" dy="4"/>
<feGaussianBlur stdDeviation="2"/>
<feComposite in2="hardAlpha" operator="out"/>
<feColorMatrix type="matrix" values="0 0 0 0 0.396078 0 0 0 0 0.184314 0 0 0 0 0.219608 0 0 0 0.3 0"/>
<feBlend mode="normal" in2="BackgroundImageFix" result="effect1_dropShadow_494_1342"/>
<feBlend mode="normal" in="SourceGraphic" in2="effect1_dropShadow_494_1342" result="shape"/>
</filter>
</defs>
</svg>
